<?xml version="1.0" standalone="yes"?>
<svg width="595" height="842">
<path style="fill:#ffffff; stroke:none;" d="M0 0L0 842L595 842L595 0L0 0z"/>
<path style="fill:#c00000; stroke:none;" d="M93 73L93 80L94 80L95 73L93 73M96 73L96 80L97 80L96 73M113 73L113 79L111 79L112 74C106.346 79.0145 118.726 80.6896 113 73M121 73L116 75L116 78L122 78L121 73M123 74L123 78L129 78L129 74L123 74M161 75C162.209 77.2363 164.168 78.5776 161 79L161 80L167 80L167 79L165 78L167 74L161 75M168 74L168 80L174 80L172 77L174 74L168 74M175 75L175 77C178.423 77.5786 179.865 77.3973 181 74L175 75M193 74L193 76L197 77L196 73L193 74M202 73L200 79L204 79L202 73M221 73L221 80L222 80L221 73M235 73L234 74L234 76L235 77L239 76L238 79L234 79L234 80L240 80L240 74L235 73M244 73L241 77L247 77L244 73M297 74C298.299 78.4408 302.801 78.5323 304 74L297 74M321 73L316 75L319 78L319 79L316 79L316 80L322 80L322 79L320 78L321 73M355 73L354 74L354 76L355 77L357 77L358 76L358 74L357 73L355 73M380 73L380 80L384 79L384 74L380 73M393 73L392 74L392 76L393 77L395 77L396 76L396 74L395 73L393 73M418 75L418 76L419 80L423 80C424.246 75.3807 422.732 72.9349 418 75M439 75L439 76L443 78L443 79L440 79C445.571 80.5273 445.952 71.9658 439 75M450 74L450 76L456 76L456 74L450 74M458 74L457 80L469 80L469 77L462 76L462 75L469 76C466.458 72.4992 461.891 73.0793 458 74M481 74L481 80L487 80L484 78L485 75L487 77C486.264 73.5537 484.273 73.3853 481 74M99 74L100 80L105 80L105 78L101 78L101 77L105 74L104 74L100 77L102 75L99 74z"/>
<path style="fill:#ffffff; stroke:none;" d="M124 75L124 76L128 76L124 75z"/>
<path style="fill:#c00000; stroke:none;" d="M135 74C135.284 76.695 137.134 78.5822 134 79L134 80L140 80L140 79L138 77L140 78L140 77L140 74L135 74M141 74C142.099 77.3213 143.59 77.7375 147 78L147 77L142 75L147 76L147 74L141 74M149 74L151 76L151 77L148 80L154 80L152 77L152 76L154 74L149 74M156 74L156 75L158 75L158 76C152.833 77.113 159.815 82.7872 160 74L156 74z"/>
<path style="fill:#ffffff; stroke:none;" d="M162 76L166 77L165 74L162 76M170 74L170 77L171 77L172 74L170 74M176 76L180 77L179 74L176 76z"/>
<path style="fill:#c00000; stroke:none;" d="M182 77L185 78L185 79L182 79L182 80L188 80L188 79C186.04 78.3466 185.446 78 188 78L188 77L183 77L183 76L188 76L188 74L182 77z"/>
<path style="fill:#ffffff; stroke:none;" d="M195 74L194 76L196 76L195 74z"/>
<path style="fill:#c00000; stroke:none;" d="M198 74L198 77L199 77L198 74M205 74L205 79L206 79L205 74M212 74L211 79L212 79L212 74M214 74L214 80L215 80L216 74L214 74M218 74L217 79L220 79L220 74L218 74M227 74L228 80L232 80L233 74L232 74L230 79L228 76L231 75L227 74z"/>
<path style="fill:#ffffff; stroke:none;" d="M235 74L235 76L237 76L237 74L235 74z"/>
<path style="fill:#c00000; stroke:none;" d="M249 74L250 80L254 74L253 74L250 79L249 74M256 74C256.472 80.0657 261.236 80.2704 261 74L260 74L260 79L257 79L258 74L256 74M268 74L268 80L273 80L270 78L270 77L273 74L268 74M275 74L275 75L279 78L280 78L280 74L275 74M281 75L281 80L287 80L287 74L281 75M292 74L292 80L304 80L304 79L295 78L296 74L292 74z"/>
<path style="fill:#ffffff; stroke:none;" d="M299 76L303 77L302 74L299 76z"/>
<path style="fill:#c00000; stroke:none;" d="M307 74L306 77L309 77L307 74M310 74L310 78L311 78L310 74M323 74L323 80L328 80L328 79L324 79L324 78L327 74L323 74M328 74L328 78L329 78L328 74M333 74L333 75L336 76L333 80L339 80L337 77L339 74L333 74M347 74L344 76L344 77L350 77L350 76L347 74z"/>
<path style="fill:#ffffff; stroke:none;" d="M355 74L355 76L357 76L357 74L355 74z"/>
<path style="fill:#c00000; stroke:none;" d="M359 74L359 77L360 77L359 74M361 74L361 79L354 79L354 80L367 80L367 79L362 79L362 78L367 78L367 76L361 74M372 74L372 79L374 79L374 75L375 75L375 80L376 80L377 74L372 74z"/>
<path style="fill:#ffffff; stroke:none;" d="M380 74L380 79L381 79L380 74z"/>
<path style="fill:#c00000; stroke:none;" d="M386 74L386 79L387 79C387.653 77.0398 388 76.446 388 79L389 79L389 74L386 74M390 74L390 79L391 79L390 74z"/>
<path style="fill:#ffffff; stroke:none;" d="M393 74L393 76L395 76L395 74L393 74z"/>
<path style="fill:#c00000; stroke:none;" d="M397.333 74.6667L397.667 75.3333L397.333 74.6667M400 74L401 80L405 74L404 74L401 79L400 74M407 74C407.472 80.0657 412.236 80.2704 412 74L411 74L411 79L408 79L409 74L407 74z"/>
<path style="fill:#ffffff; stroke:none;" d="M419 75L419 76L421 79L422 79L423 79L422 74L419 75z"/>
<path style="fill:#c00000; stroke:none;" d="M425 74C426.487 77.3498 430.122 78.0962 431 74L425 74M432 77L435 78L435 79L432 79L432 80L438 80L438 79C436.04 78.3466 435.446 78 438 78L438 77L433 77L433 76L438 76L438 74L432 77z"/>
<path style="fill:#ffffff; stroke:none;" d="M440 75L440 76L444 78L443 74L440 75M451 75L451 76L455 76L451 75M465.667 74.3333L466.333 74.6667L465.667 74.3333z"/>
<path style="fill:#c00000; stroke:none;" d="M475 74L475 75L479 75L479 76L474 76L474 77L480 77L480 74L475 74M489 74L490 80L494 74L493 74L490 79L489 74M496 74C496.472 80.0657 501.236 80.2704 501 74L500 74L500 79L497 79L498 74L496 74z"/>
<path style="fill:#ffffff; stroke:none;" d="M117 75L117 76L121 76L117 75M136 75L136 77L138 77L138 75L136 75M151 75L152 76L151 75M243.667 75.3333L244.333 75.6667L243.667 75.3333M271 75L272 76L271 75M317 75L317 76L321 76L317 75M324 75L324 77L326 77L326 75L324 75M336 75L337 76L336 75M459 76L464 79L461 75L459 76M93 76L93 79L94 79L93 76M158 76L156 79C158.251 78.5267 159.118 78.1397 158 76M269 76L270 77L269 76z"/>
<path style="fill:#c00000; stroke:none;" d="M275 76L275 77L278 77L275 76z"/>
<path style="fill:#ffffff; stroke:none;" d="M293.667 76.3333L294.333 76.6667L293.667 76.3333M482.667 76.3333L483.333 76.6667L482.667 76.3333M151 77L152 78L151 77M336 77L337 78L336 77z"/>
<path style="fill:#c00000; stroke:none;" d="M193 78L193 80L199 80L199 78L193 78M241 79L241 80L247 80L247 78L241 79M305 78L305 79L311 80L311 79L305 78M344 78L344 79L350 79L344 78M393 78L393 80L398 80L398 78L393 78M425 78L425 79L431 79L425 78M450 78L450 79L456 79L450 78z"/>
<path style="fill:#ffffff; stroke:none;" d="M460 78L461 79L460 78z"/>
<path style="fill:#c00000; stroke:none;" d="M474 78L474 80L480 80L480 78L474 78M116 79L116 80L122 80L116 79M123 79L123 80L129 80L123 79M141 79L141 80L147 80L141 79M175 79L175 80L181 80L175 79M274 79L274 80L280 80L274 79z"/>
<path style="fill:#000000; stroke:none;" d="M184.323 94.0278C177.843 98.4413 189.373 102.736 193.677 99.8218C199.994 95.5449 188.411 91.243 184.323 94.0278M200 93C200 96.674 198.948 102.32 200.603 105.682C202.027 108.574 206.973 108.574 208.397 105.682C210.052 102.32 209 96.674 209 93L200 93M213 93L213 110L214 110L213 93M220.318 94.0432C215.026 97.3635 220.187 106.399 225.682 102.218C230.519 98.538 225.562 90.7529 220.318 94.0432M231 93C231 104.594 228.048 105.604 217 107L217 108L231 106L231 110L232 110L231 93M248 93L243 108L248 102L249 102L253 108L248 93M255 93L255 99L251 99L251 100L255 100L255 110L256 110L255 93M258 93L258 110L259 110L258 93M280 93L280 99L294 99L294 98L281 98L281 94L294 94L280 93M318 93L318 95L320 95L320 93L318 93M323 93L323 108L324 108L323 93M371 93L371 95L373 95L373 93L371 93M402 93L402 98C392.652 95.9183 393.396 107.687 403 108L402 93z"/>
<path style="fill:#ffffff; stroke:none;" d="M185.377 95.0239C180.956 98.2034 189.403 101.197 192.377 98.8364C196.503 95.5627 188.103 93.0629 185.377 95.0239M221.314 95.0864C217.279 97.3776 220.534 103.603 224.682 100.953C228.329 98.6232 225.12 92.925 221.314 95.0864z"/>
<path style="fill:#000000; stroke:none;" d="M262 94L262 95L277 95L262 94M337 94L335 98L335 99C336.81 101.389 337.534 111.924 342 107L339 108L342 99L342 98L339 98L339 94L337 94z"/>
<path style="fill:#ffffff; stroke:none;" d="M201 95C201 108.613 208 108.613 208 95L201 95z"/>
<path style="fill:#000000; stroke:none;" d="M265 96L262 102L262 103L269 103L269 107L261 107L261 108L278 108L278 107L270 107L270 103L277 103L277 102L274 102L275 96L273 102C268.351 101.641 267.233 99.7998 265 96M306 97L306 111L307 111L307 107C316.396 108.205 315.544 97.1132 306 97M318 97L318 108L319 108L318 97M328.313 98.0864C324.135 100.45 326.68 109.745 331.687 106.914C335.865 104.55 333.319 95.2548 328.313 98.0864M358 105C354.567 105.951 353.374 105.652 351 103L358 103C357.309 98.6669 351.816 94.6099 350.337 101.058C349.084 106.522 354.894 109.769 358 105M360 97L360 111L361 111L361 107C370.396 108.205 369.544 97.1132 360 97M371 97L371 108L372 108L371 97M382 107L376 105C377.588 107.448 384.743 109.183 383.248 104.356C382.562 102.138 378.717 100.345 377 99L384 100C382.45 98.4235 375.178 95.4453 376.751 100.644C377.458 102.98 380.78 104.707 382 107M387.313 98.0864C383.135 100.45 385.681 109.745 390.687 106.914C394.865 104.55 392.319 95.2549 387.313 98.0864M414 105C410.567 105.951 409.374 105.652 407 103L414 103C413.309 98.6669 407.816 94.6099 406.337 101.058C405.084 106.522 410.894 109.769 414 105z"/>
<path style="fill:#ffffff; stroke:none;" d="M307 106C317.91 105.13 307.167 91.9169 307 106M332 98C320.966 101.35 335.352 112.623 332 98M351 102L357 102L356 98L351 102M361 106C371.91 105.13 361.167 91.9169 361 106M391 98C379.966 101.35 394.352 112.623 391 98M398.26 99.1759C395.411 100.668 395.964 107.529 399.791 106.248C403.225 105.1 402.026 97.2039 398.26 99.1759M407 102L413 102L412 98L407 102z"/>
<path style="fill:#000000; stroke:none;" d="M278 101L278 102L295 102L278 101M280 103L280 104L292 104L292 106L280 106L280 110L294 110L294 109L281 109L281 107L294 107L294 103L280 103M180 104L180 105L184 105L184 110L186 110L186 105L192 105L192 110L193 110L193 105L197 105L180 104M234 126L236 130L236 126L234 126M237 126L239 130L239 126L237 126M245 126L240 141L245 135L246 135L250 141L245 126M251 126L251 143L252 143L252 134L255 134L255 143L256 143L256 126L255 126L255 133L252 133L251 126M269 126L269 127L277 127L269 126M281 126L281 137L282 137L285 132L285 131L282 131L281 126M285 126L285 127L293 128C292.672 133.998 290.105 137.031 285 140L285 141C293.389 139.306 293.999 133.433 294 126L285 126M298 126L298 143L299 143L298 126M314 126L314 127L321 127L314 126M326 126L326 131L322 131L322 132L326 132L326 137L327 137L326 126M339 126C339.124 136.494 345.206 131.643 352 135L353 135L356 130L356 129L353 126L352 126L352 132C344.495 132.592 342.3 133.051 339 126M357 126L357 130L358 130L359 126L357 126M360 126L360 130L361 130L362 126L360 126M267 128L267 129L279 129L267 128M312 129L312 130L317 130L311 135L311 136L317 133L318 133L321 135L313 142L313 143L328 143L328 142C324.546 140.46 321.509 139.087 323 135L318 130L323 130L312 129M270.323 130.742C265.304 133.182 272.367 136.945 275.677 135.397C280.7 133.047 273.806 129.049 270.323 130.742z"/>
<path style="fill:#ffffff; stroke:none;" d="M270 135L277 134L277 132C273.312 131.232 271.265 131.199 270 135z"/>
<path style="fill:#000000; stroke:none;" d="M340 136L340 137L352 137L352 139L340 139L340 143L353 143L353 142L341 142L341 140L353 140L353 136L340 136M269 138L269 139L281 139L281 143L282 143L282 138L269 138M65 186C62.6403 178.305 56.9055 186.704 65 186M184 181L180 187L180 186L182 186L182 185L177 185L177 183L182 183L182 182L176 182L179 186L179 187L176 187L176 188L184 189L185 189L184 181M192 181L192 186L200 186L200 181L192 181M214 182C216.932 190.834 226.373 179.19 214 182M314.263 182.059C311.296 182.649 312.898 187.199 315.721 186.249C318.37 185.358 316.746 181.566 314.263 182.059M320 181L320 187L321 187L320 181M56 182L56 186L57 186L56 182z"/>
<path style="fill:#ffffff; stroke:none;" d="M61 182L60 183L60 185L61 186L63 186L64 185L64 183L63 182L61 182z"/>
<path style="fill:#000000; stroke:none;" d="M67 182L67 187L68 187L70 185L70 184L67 182M71 182L71 183L76 183L76 184L71 184L71 187L80 187L80 182L79 182L79 186L72 186L72 185L77 185L77 182L71 182M95 182L95 183L95 187L100 183L99 187L103 185L96 188L96 189L103 192L104 192L104 182L103 182L102 184L95 182M109 182L106 188L109 185L110 185L113 187L113 186L109 182M114 182C113.918 184.539 113.138 191.087 110 187L109 187L106 190L106 191L114 192L115 192L114 182M118 182L118 192L119 192L118 182M123 182L120 186L120 187L123 191L124 191L121 187L121 186L123 182M128 182L128 191C131.807 187.785 131.807 185.215 128 182M134 182L134 192L135 192L134 182M138 182L138 183L146 183L146 184L138 184L138 188L142 188L142 190L137 190L137 191L147 191L147 190L143 190L143 188L147 188L147 187L139 187L139 185L147 185L147 182L138 182M154 182L154 187L163 187L163 186L162 182L154 182M167 182L164 191L167 187L168 187L171 191L167 182M173 182L173 192L174 192L173 182z"/>
<path style="fill:#ffffff; stroke:none;" d="M193 182L193 185L199 185L199 182L193 182z"/>
<path style="fill:#000000; stroke:none;" d="M203 182L203 183L203 187L208 186L208 187L203 189L203 190C214.038 197.843 207.185 183.242 209 183L203 182M210 182L210 187L211 187L213 185L213 184L210 182z"/>
<path style="fill:#ffffff; stroke:none;" d="M215 185L221 185L221 182L215 185z"/>
<path style="fill:#000000; stroke:none;" d="M230 182C230.025 188.955 231.371 190.338 238 192L238 182L237 182L237 190L231 190L230 182M242 182L242 183L245 186L241 186L241 191L246 191L246 190L242 190L246 186L247 192L248 192L248 182L247 182L247 186L246 186L246 182L242 182M249 182L249 192L250 192L249 182M253.56 183.086C250.85 185.07 252.904 192.46 256.301 189.914C259.04 187.86 257.12 180.48 253.56 183.086M260 182L260 192L261 192L260 182M263 182C263.021 187.937 263.534 190.788 270 191L270 190L264 190L264 183L269 183L263 182M271 182L269 186L269 187L271 192L272 192L271 182M275.618 183.042C272.684 185.3 276.73 188.998 279.382 186.958C282.316 184.7 278.27 181.002 275.618 183.042M282 182C281.79 188.443 279.183 189.927 273 190L273 191L282 192L283 192L282 182M290 182C290.022 188.239 290.838 190.313 297 192L297 187L298 187L298 192L299 192L299 182L298 182L298 186L297 186L297 182L296 182L296 190L291 190L291 183L295 183L290 182M303 182L300 191L303 187L304 187L307 191L303 182M308 182L308 192L309 192L308 182z"/>
<path style="fill:#ffffff; stroke:none;" d="M314 182L313 186L317 186L316 182L314 182z"/>
<path style="fill:#000000; stroke:none;" d="M323 182C323.027 189.669 324.978 190.302 332 192L332 182L331 182L331 190L324 190L323 182M334 182C334.025 188.955 335.371 190.338 342 192L342 182L341 182L341 190L335 190L335 183L340 183L334 182M87 183L88 184L87 183z"/>
<path style="fill:#ffffff; stroke:none;" d="M156 183L156 186L160 186L160 183L156 183M253 183L254 190L256 190C256.979 186.326 256.798 184.26 253 183M275 183L275 187L280 187L280 183L275 183z"/>
<path style="fill:#000000; stroke:none;" d="M265 186L265 187L268 187L265 186M191 187L191 188L196 190L197 190L201 188L191 187M213 187L213 188L223 188L213 187M60 192L68 192L68 191L61 191L61 190L68 190L68 188C64.0654 188.047 61.3429 187.954 60 192M72 188L72 192L80 192L80 188L72 188M87 188L88 189L87 188M155 188L153 190L153 191L163 191L163 190L161 188L160 188L155 188z"/>
<path style="fill:#ffffff; stroke:none;" d="M204 189L204 190L210 191C208.268 188.331 207.058 188.29 204 189z"/>
<path style="fill:#000000; stroke:none;" d="M313 188L313 192L321 192L321 188L313 188z"/>
<path style="fill:#ffffff; stroke:none;" d="M73 189L73 191L79 191L79 189L73 189z"/>
<path style="fill:#000000; stroke:none;" d="M177 189C177.854 192.987 181.49 192 185 192L185 191L177 189M192 189C192.854 192.987 196.49 192 200 192L200 191L192 189M214 189L222 192L222 191L214 189z"/>
<path style="fill:#ffffff; stroke:none;" d="M314 190L314 191L320 191L314 190z"/>
<path style="fill:#000000; stroke:none;" d="M345 190L346 191L345 190M59 237L54 235C55.3784 238.918 58.6765 239.545 61 236L62 236L63 239L64 236L65 236L66 238L67 238L70 236L68 234L68 233L69 229L67 231L66 231L65 229L64 229L63 234L57 230L61 231C59.7103 229.008 54.9056 226.552 54.8665 231.019C54.8466 233.29 57.6858 235.391 59 237M87 235L86 238L95 240L97 233L95 229C91.6313 228.925 80.2317 228.993 87 235M115 237L115 238L113 240L122 240L124 233L124 232L124 231L120 228L118 235C122.62 222.216 105.398 231.999 115 237M138 228L135 234L136 229L129 229L129 230L134 230L129 233C131.024 242.171 141.866 241.902 146 234L147 234L147 240L149 240L149 229L147 232L146 232L146 229L140 229L140 230L144 230L139 238L138 228M71 232C74.2488 232 73 236.285 73 239L74 239L74 229L71 232M97 229L97 231L104 231L104 237L103 237L103 233L102 233L102 237L100 237L100 233L98 233L96 239L107 239L105 237L106 229L97 229M151 229L151 230L156 230L156 233L151 233C151.489 239.272 155.651 239.003 161 240L161 229L159 229C158.846 233.725 157.923 236.215 153 237L153 234L158 234L158 229L151 229z"/>
<path style="fill:#ffffff; stroke:none;" d="M114 232L115 233L117 230L114 232M92 232L91 236L92 232M65 233L66 234L65 233M87 233L87 234L90 234L87 233z"/>
<path style="fill:#000000; stroke:none;" d="M77 237L77 239L79 239L79 237L77 237z"/>
<path style="fill:#ffffff; stroke:none;" d="M116 237L116 238L119 238L116 237z"/>
<path style="fill:#000000; stroke:none;" d="M63 252L63 260L64 260L63 252M76 252L76 253L81 253L76 252M83 252L83 260L84 260L83 252M133.318 252.782C129.253 254.527 133.487 258.668 136.682 257.356C140.747 255.687 136.643 251.355 133.318 252.782M188 252L188 259L181 260L181 262L189 262L188 252M196 252L196 253L199 253L199 257L195 257L195 258L205 258L201 252L201 253L203 257L200 257L200 252L196 252M207 253L207 255L216 255L216 253L207 253M223 252L223 253L226 253L222 257L222 258L232 258L232 257L227 253L230 256L231 256L231 252L223 252M267 252L267 256L276 256L276 255L268 255L268 253L276 253L267 252M322 261L322 262L326 261L325 258C329.068 255.037 325.385 250.557 323.077 253.583C321.494 255.659 323.499 258.593 322 261M330 252L327 262L331 262L330 252M56 253L56 254L60 254L55 258C56.9123 262.506 59.3245 262.945 64 263L64 262L57 262L61 253L56 253M66 253L66 254L66 258L71 257L71 258L66 260L66 261C77.0376 268.843 70.1854 254.242 72 254L66 253M73 253L73 258L74 258L76 256C75.534 261.943 78.6366 262.936 84 263L84 262L77 262L77 259L82 258L82 254L73 253M93 253L93 258L102 258L102 257L101 253L93 253M104 253L104 254L104 258L108 257L108 258L105 259C106.584 263.773 111.415 263.773 113 259C110.96 257.98 105.057 254.638 110 254L104 253M112 253L110 255L110 256L112 258L113 258L112 253M116.618 254.042C113.684 256.3 117.73 259.998 120.382 257.958C123.316 255.7 119.27 252.002 116.618 254.042M123 253C122.79 259.443 120.183 260.927 114 261L114 262L123 263L124 263L123 253z"/>
<path style="fill:#ffffff; stroke:none;" d="M132 254L132 256L138 257C136.864 253.578 135.43 253.216 132 254z"/>
<path style="fill:#000000; stroke:none;" d="M142 253C142.035 262.908 147.965 262.908 148 253L142 253M150 253L150 263L151 263L150 253M153 253L153 254L158 254L153 261L153 262C157.589 260.349 158.74 257.731 159 253L153 253M161 253L161 263L162 263L161 253M169 253L169 254L174 254L169 261L169 262C173.589 260.349 174.74 257.731 175 253L169 253M177 253L177 263L178 263L177 253M180 253L180 258L186 258L186 253L185 253L185 257L181 257L181 256L184 256L184 255L180 253z"/>
<path style="fill:#ffffff; stroke:none;" d="M208 254L208 255L215 255L208 254z"/>
<path style="fill:#000000; stroke:none;" d="M240 253L240 254L242 256L239 257L239 258L246 258C244.791 255.764 242.832 254.422 246 254L240 253M247 253L247 258L248 258L250 256L250 255L247 253M251 253L251 254L258 254L258 260L259 260L259 253L251 253M278 253L278 254L285 254L285 260L286 260L286 253L278 253M293 254L293 255L300 255L293 254M301 253L301 263L302 263L304 258L304 257L301 253M305 253L305 254L312 254L312 260L313 260L313 253L305 253z"/>
<path style="fill:#ffffff; stroke:none;" d="M323 253L324 257L326 257L327 253L323 253z"/>
<path style="fill:#000000; stroke:none;" d="M333 253C333.025 259.955 334.371 261.338 341 263L341 253L340 253L340 261L334 261L334 254L339 254L333 253z"/>
<path style="fill:#ffffff; stroke:none;" d="M95 254L95 257L99 257L99 254L95 254M116 254L116 258L121 258L121 254L116 254M143 254L143 261L147 261L147 254L143 254M76 257L76 258L81 258L81 256L76 257M226 256L227 257L226 256z"/>
<path style="fill:#000000; stroke:none;" d="M295.342 257.171C292.486 258.631 294.82 262.57 297.591 261.339C300.558 260.021 298.126 255.748 295.342 257.171M206 257L206 258L216 258L206 257M254 257L254 261L250 261L250 262L260 262L260 261L255 261L254 257M266 257L266 258L276 258L266 257M280 257L277 261L277 262L287 262L287 261L284 261L284 257L283 257L283 261L281 261L280 257z"/>
<path style="fill:#ffffff; stroke:none;" d="M294 258L294 260L299 260L299 258L294 258z"/>
<path style="fill:#000000; stroke:none;" d="M308 257L308 261L304 261L304 262L314 262L314 261L309 261L308 257z"/>
<path style="fill:#ffffff; stroke:none;" d="M67 260L67 261L73 262C71.2684 259.331 70.0576 259.29 67 260z"/>
<path style="fill:#000000; stroke:none;" d="M94 259L92 261L92 262L102 262L102 261L100 259L99 259L94 259z"/>
<path style="fill:#ffffff; stroke:none;" d="M106 262L112 262C110.042 259.006 107.958 259.006 106 262z"/>
<path style="fill:#000000; stroke:none;" d="M130 259L130 260L132 263L133 263L133 260L137 263L138 263L140 260L130 259M196 259C197.343 263.046 200.065 262.953 204 263L204 262L196 259M207 259L207 260L215 260L215 261L207 261L207 263L216 263L216 259L207 259M223 259L223 260L230 262C231.458 258.131 225.572 259.002 223 259M240 259C241.343 263.046 244.065 262.953 248 263L248 259L240 259M267 260L267 262L276 262L276 260L267 260z"/>
<path style="fill:#ffffff; stroke:none;" d="M182 260L182 262L188 262L188 260L182 260M268 260L268 262L275 262L275 260L268 260M241 261L241 262L247 262L241 261z"/>
<path style="fill:#000000; stroke:none;" d="M343 261L344 262L343 261M57.3179 299.782C53.2529 301.527 57.4872 305.668 60.6821 304.356C64.7465 302.687 60.6429 298.355 57.3179 299.782M135 299L135 300L139 300L139 301L134 302L134 303L144 303L144 302L140 302L143 300L135 299M172 302L177 300L172 309L178 309L178 308L173 308C175.993 304.369 178.204 295.846 172 302M198 299L195 301L195 302L198 302L198 303L196 305L191 305L191 300L190 300L189 303L188 300L187 300L187 306L188 306L190 304C191.661 309.126 193.764 309.938 199 310L199 309L192 309L192 306C194.861 305.925 197.568 303.757 198 307L199 307L198 299M208 299L208 300L212 300L208 299M215 299L210 303L213 302L213 301L207 301L207 302L209 304L206 305L206 306L215 306L216 306L215 299M250 299L250 307L251 307L250 299z"/>
<path style="fill:#ffffff; stroke:none;" d="M56 301L56 303L62 304C60.8643 300.578 59.43 300.216 56 301z"/>
<path style="fill:#000000; stroke:none;" d="M66 300C66.035 309.908 71.965 309.908 72 300L66 300M74 300L74 310L75 310L74 300M145 301L147 303L145 305L152 305L152 301L145 301M153 300L153 306L154 306L156 304L156 303L153 300M156 300L156 301L163 301L163 307L164 307L164 300L156 300M179 301L181 303L179 305L186 305L186 301L179 301M223 300C223.885 305.301 227.365 304.74 232 305L232 300L224 304L223 300M243 300L243 301L247 301L242 305C243.912 309.506 246.324 309.945 251 310L251 309L244 309L248 300L243 300M253 300L253 301L253 305L258 304L258 305L253 307L253 308C264.038 315.842 257.186 301.242 259 301L253 300M260 300L260 305L261 305L263 303L263 302L260 300M264 300L263 308L263 309L271 310L271 305L272 305L272 310L273 310L273 300L272 300L272 304L271 304L271 300L270 300L267 308L269 305L269 304L265 304L265 301L269 301L264 300z"/>
<path style="fill:#ffffff; stroke:none;" d="M67 301L67 308L71 308L71 301L67 301M146 304L146 305L151 305L146 304M180 304L180 305L185 305L180 304z"/>
<path style="fill:#000000; stroke:none;" d="M134 304L134 305L139 305L139 306L135 307L135 309L143 309L143 307L140 306L140 305L144 305L134 304M158 304L155 308L155 309L165 309L165 308L162 308L162 304L161 304L161 308L159 308L158 304M54 306L54 307L56 310L57 310L57 307L61 310L62 310L64 307L54 306M211 306L207 309L207 310L216 310L216 309L211 306M223 309L231 310L231 309L224 309L224 308L232 308L232 306L223 309z"/>
<path style="fill:#ffffff; stroke:none;" d="M254 307L254 308L260 309C258.268 306.331 257.058 306.29 254 307M136 307L136 309L142 309L142 307L136 307z"/>
<path style="fill:#000000; stroke:none;" d="M146 307L146 308L153 310C154.458 306.131 148.572 307.002 146 307M180 307L180 308L187 310C188.458 306.131 182.572 307.002 180 307M234 308L235 309L234 308M275 308L276 309L275 308M278 308L279 309L278 308M135 323L135 325L139 326L139 327L134 327L134 328L144 328L144 327L140 327L140 326L144 325L144 323L135 323M173 322L173 323L176 323L172 327L172 328L182 328L182 327L177 323L180 326L181 326L181 322L173 322M194 322L194 330L195 330L194 322z"/>
<path style="fill:#ffffff; stroke:none;" d="M136 324L136 325L143 325L136 324z"/>
<path style="fill:#000000; stroke:none;" d="M146 324L146 325L151 325L146 324M152 323L152 333L153 333L153 328L154 328L154 333L155 333L155 329L165 329L165 328L155 328L155 323L154 323L154 327L153 327L152 323M156 323C157.456 327.387 160.85 326.985 165 327L165 326L156 323M147.564 327.171C145.573 328.471 147.241 332.261 149.436 330.829C151.427 329.529 149.759 325.739 147.564 327.171z"/>
<path style="fill:#ffffff; stroke:none;" d="M176 326L177 327L176 326z"/>
<path style="fill:#000000; stroke:none;" d="M184 326L185 327L184 326M188 326L189 327L188 326M192 326L193 327L192 326z"/>
<path style="fill:#ffffff; stroke:none;" d="M147 327L147 331L150 331L150 327L147 327z"/>
<path style="fill:#000000; stroke:none;" d="M135 329L135 330L143 330L143 331L135 331L135 333L144 333L144 329L135 329M173 329L173 330L180 332C181.458 328.131 175.572 329.002 173 329M156 330L165 333L165 332L156 330M194 331L195 332L194 331M59 377L54 376C55.5614 379.518 60.0743 380.32 61 376L62 376L63 379L64 376L65 376L65 379L70 376C70.7292 379.403 72.8058 378.987 76 379L76 377L72 377L72 376L76 369L70 371L69 371C68.2127 368.953 67.7873 368.953 67 371L66 371L65 369L64 369L62 371L63 375L56 372L56 371L61 372C60.2071 368.3 53.7739 367.988 54.4444 372C54.7936 374.089 57.6986 375.542 59 377M88 369L85 379L89 377C93.6232 381.314 101.053 379.001 107 379L107 377L102 377L102 376L106 376L106 369L92 369L92 373L90 373L90 369L88 369M115 369L112 379L130 376L130 380L134 380L134 369L130 371L129 371L124 369L127 371L123 378L123 369L119 369L119 373L117 373L117 369L115 369z"/>
<path style="fill:#ffffff; stroke:none;" d="M68 375L74 371L68 375M96 371L96 374L98 374L98 371L96 371M100 371L100 374L103 374L103 371L100 371M65.3333 373.667L65.6667 374.333L65.3333 373.667M129.333 373.667L129.667 374.333L129.333 373.667M90 375L92 377L92 375L90 375M118.333 375.667L118.667 376.333L118.333 375.667M96 376L96 377L100 377L96 376z"/>
<path style="fill:#000000; stroke:none;" d="M77 377L77 380L79 380L79 377L77 377M135 378L136 379L135 378M76 392L76 393L80 393L80 394L76 395L76 396L80 394L81 394L85 396L85 395L81 394L81 393L85 393L76 392M150 392L148 395L148 396L150 398L151 398L150 392M165 392L165 400L166 400L165 392M196 392L196 393L200 393L200 394L196 395L196 396L200 394L201 394L205 396L205 395L201 394L201 393L205 393L196 392M294 392L294 393L299 393L294 392M301 392L301 400L302 400L301 392M59 393L54 398L54 399L64 399L64 398L59 393M66 393L66 394L69 394L65 401L65 402L71 398L71 403L72 403L72 393L71 393L71 397L70 397L70 393L66 393M74 393L74 403L75 403L75 398L80 398L80 399L76 399L76 400L84 400L84 401L76 401L76 403L85 403L85 399L81 399L81 398L85 398L85 397L75 397L74 393M95 393L92 402L96 399L97 402L98 402L95 393M99 393L97 396L97 397L99 403L100 403L99 393M101 393L101 403L102 403L101 393M104 393L103 398L103 399L108 399L108 401L103 401L103 402L113 402L113 401L109 401L109 399L113 399L113 398L112 393L104 393M115 393L115 394L120 394L115 401L115 402C119.589 400.349 120.74 397.731 121 393L115 393M123 393L123 403L124 403L123 393M131 393L131 394L131 397L131 398L137 398C135.791 395.764 133.832 394.422 137 394L131 393M139 393L139 399L132 399L132 400L139 403L140 403L139 393M142 393L142 394L144 396L141 397L141 398L148 398C146.791 395.764 144.832 394.422 148 394L142 393M157 393L157 398L160 397L160 393L157 393M161 393L160 399L164 398L164 393L161 393M178 393L173 398L173 399L183 399L183 398L178 393M185 393L185 394L188 394L184 401L184 402L190 398L190 403L191 403L191 393L190 393L190 397L189 397L189 393L185 393M193 393L193 403L194 403L193 393M207 393L207 398L216 398L216 397L215 393L207 393M218 397L227 397L227 396L219 396L219 395L227 395L227 393C222.85 393.015 219.456 392.613 218 397M234 393C234.022 399.239 234.838 401.313 241 403L241 398L242 398L242 403L243 403L243 393L242 393L242 397L241 397L241 393L240 393L240 401L235 401L234 393M245 393C245.898 398.379 250.102 398.379 251 393L245 393M253 393L253 398L254 398L253 393M256 393C256.023 399.567 257.471 403.386 264 399L264 403L265 403L265 393L264 393L263 395L256 393M272 393L272 394L271 402L274 398L278 401C276.621 398.107 275.223 396.114 278 394L272 393M280 393L280 403L281 403L280 393M283 393L283 394L288 394L288 395L283 395L285 398L284 402L292 402L293 395L294 395C293.363 401.358 296.009 402.929 302 403L302 402L295 402L295 399L300 398L300 394L292 393L291 393L291 397L284 397L284 396L289 396L289 393L283 393M305 393C305.025 399.955 306.371 401.338 313 403L313 393L312 393L312 401L306 401L306 394L311 394L305 393z"/>
<path style="fill:#ffffff; stroke:none;" d="M106 394L106 398L110 398L110 394L106 394M209 394L209 397L213 397L213 394L209 394M246 394L246 397L250 397L250 394L246 394M257 394L257 401L261 401L261 394L257 394z"/>
<path style="fill:#000000; stroke:none;" d="M65 398L68 397L65 398M184 398L187 397L184 398z"/>
<path style="fill:#ffffff; stroke:none;" d="M262 396L262 398L264 398L264 396L262 396M294 397L294 398L299 398L299 396L294 397z"/>
<path style="fill:#000000; stroke:none;" d="M195 397L195 398L200 398L200 399L196 399L196 400L204 400L204 401L196 401L196 403L205 403L205 399L201 399L201 398L205 398L195 397M217 398L217 399L225 400L225 401L218 401L218 403L227 403L227 402L225 401L227 398L217 398z"/>
<path style="fill:#ffffff; stroke:none;" d="M286 398L286 399L291 399L286 398z"/>
<path style="fill:#000000; stroke:none;" d="M143 399L143 403L151 403L151 399L143 399M158 399C159.343 403.046 162.065 402.953 166 403L166 402L158 399M208 399L206 401L206 402L216 402L216 401L214 399L213 399L208 399M246 399L246 403L254 403L254 402L247 402L247 401L254 401L254 399L246 399z"/>
<path style="fill:#ffffff; stroke:none;" d="M285 400L285 402L291 402L291 400L285 400z"/>
<path style="fill:#000000; stroke:none;" d="M54 401L54 402L64 402L54 401z"/>
<path style="fill:#ffffff; stroke:none;" d="M144 401L144 402L150 402L144 401z"/>
<path style="fill:#000000; stroke:none;" d="M173 401L173 402L183 402L173 401M316 401L317 402L316 401M76 439L76 440L80 440L80 441L76 442L76 443L80 441L81 441L85 443L85 442L81 441L81 440L85 440L76 439M135 439L135 440L138 442L134 442L134 443L140 442L140 443L134 444L134 445L138 447L138 448L135 449L143 450L141 448L141 447L144 447L144 446C142.04 445.347 141.446 445 144 445L144 444L140 444L140 443L144 443L144 442L140 442L143 440L135 439M146 440C148.932 448.834 158.373 437.19 146 440M163 439L163 440L167 440L163 439M170 439L170 447L171 447L170 439M184 439L184 443L193 443L193 442L185 442L185 440L193 440L184 439M271 439L271 447L272 447L271 439M59 440L54 445L54 446L64 446L64 445L59 440M66 440L66 441L69 441L65 448L65 449L71 445L71 450L72 450L72 440L71 440L71 444L70 444L70 440L66 440M74 440L74 450L75 450L75 445L80 445L80 446L76 446L76 447L84 447L84 448L76 448L76 450L85 450L85 446L81 446L81 445L85 445L85 444L75 444L74 440z"/>
<path style="fill:#ffffff; stroke:none;" d="M147 443L153 443L153 440L147 443z"/>
<path style="fill:#000000; stroke:none;" d="M173 440L173 441L180 441L180 445L172 445L172 446L177 446L177 450L178 450L178 446L182 446L181 440L173 440M200 440L205 448L202 449L202 450L209 449L210 443L210 442L208 440L207 440L205 445L206 440L200 440M212.56 441.086C209.85 443.07 211.904 450.46 215.301 447.914C218.04 445.86 216.12 438.48 212.56 441.086M219 440L219 450L220 450L219 440M229 440L226 449L229 445L230 445L233 449L229 440M234 440L234 450L235 450L234 440M239 440L239 441L244 441L244 443L237 443L237 444L247 445L247 440L246 440L246 443L245 443L245 440L239 440M249 440L249 441L253 441L248 448L248 449C252.589 447.349 253.74 444.731 254 440L249 440M256 440L256 450L257 450L256 440M260.728 441.047C257.495 443.592 260.822 450.576 264.397 447.338C267.239 444.764 264.405 438.153 260.728 441.047M267 440L267 450L268 450L267 440M162 441L162 442L165 442L162 445C163.912 449.506 166.324 449.945 171 450L171 449L164 449L165 444L169 446L169 445C167.194 443.449 166.837 443.137 169 442L162 441z"/>
<path style="fill:#ffffff; stroke:none;" d="M201 441L201 444L205 444L205 441L201 441M212 441L213 448L215 448C215.979 444.326 215.798 442.26 212 441M261.549 442.175C259.366 443.579 260.869 448.485 263.451 446.825C265.635 445.421 264.131 440.515 261.549 442.175z"/>
<path style="fill:#000000; stroke:none;" d="M65 445L68 444L65 445M183 444L183 445L193 445L183 444M145 445L145 446L155 446L145 445M184 446L184 447L192 447L192 448L184 448L184 450L193 450L193 446L184 446M200 446L200 449L201 449L200 446M239 446L239 447L246 447L246 448L239 448L239 450L247 450L247 446L239 446M146 447L154 450L154 449L146 447M54 448L54 449L64 449L54 448z"/>
<path style="fill:#ffffff; stroke:none;" d="M138 448L138 449L141 449L138 448M205.667 448.333L206.333 448.667L205.667 448.333z"/>
<path style="fill:#000000; stroke:none;" d="M271 448L272 449L271 448M162 464L165 468L165 469L161 469L161 470L170 471L171 471L171 464L170 464L166 469L166 468L169 464L162 464M173 463L173 469L181 468L174 470L174 471L181 474L182 474L182 463L181 463L179 463L178 463L178 468L174 468L177 466L177 465L173 463M184 463L184 464L189 464L184 463M191 463L191 471L192 471L191 463M212 463L212 464L217 464L212 463M222 464L222 466L231 466L231 464L222 464M249 464L249 466L254 467L254 468L248 468L248 469L256 468L256 464L249 464M257 463L255 469L255 470C258.602 469.228 258.659 465.88 257 463M262.314 463.785C258.047 465.638 261.866 470.873 265.686 469.215C269.953 467.362 266.134 462.127 262.314 463.785M293 463L293 471L294 471L293 463M135 464C135.022 470.239 135.838 472.313 142 474L142 469L143 469L143 474L144 474L144 464L143 464L143 468L142 468L142 464L141 464L141 472L136 472L135 464M146 464L146 465L151 465L146 472L146 473C150.589 471.349 151.74 468.731 152 464L146 464M154 464L154 474L155 474L154 464z"/>
<path style="fill:#ffffff; stroke:none;" d="M163 467L168 467C166.228 464.318 164.772 464.318 163 467z"/>
<path style="fill:#000000; stroke:none;" d="M200 464L200 465L203 465L199 472L199 473L206 470L206 474L207 474L207 464L206 464L205 466L200 464M208 464L208 474L209 474L208 464M219 464L217 469L218 465L211 465L211 470L220 470L219 464z"/>
<path style="fill:#ffffff; stroke:none;" d="M223 465L223 466L230 466L223 465z"/>
<path style="fill:#000000; stroke:none;" d="M240 464L237 473L241 470L242 473L243 473L240 464M244 464L242 467L242 468L244 474L245 474L244 464M246 464L246 474L247 474L246 464z"/>
<path style="fill:#ffffff; stroke:none;" d="M250 464L250 466L255 466L255 464L250 464M262.643 465.067C260.453 466.69 263.404 469.38 265.357 467.933C267.547 466.31 264.596 463.62 262.643 465.067z"/>
<path style="fill:#000000; stroke:none;" d="M271 464C271.027 471.669 272.978 472.302 280 474L280 464L279 464L279 472L272 472L271 464M282 464L282 465L282 473L283 473L285 465L287 465L285 473L286 473L288 464L282 464M290 464L290 474L291 474L290 464M183 465C183.883 471.54 185.116 473.918 192 474L192 473L185 473L185 470L190 469L190 465L183 465z"/>
<path style="fill:#ffffff; stroke:none;" d="M179.667 466.333L180.333 466.667L179.667 466.333M184 468L184 469L189 469L189 467L184 468M204 467L204 469L206 469L206 467L204 467M212 467L212 468L216 468L212 467z"/>
<path style="fill:#000000; stroke:none;" d="M221 468L221 469L231 469L221 468M222 470L222 471L230 471L230 472L222 472L222 474L231 474L231 470L222 470M162 471L171 474L171 473L162 471M212 471L212 472L219 474C220.458 470.131 214.572 471.002 212 471M249 472L249 473L253 473L249 472M254 472L254 473L258 473L254 472M259 472L259 473L269 473L259 472M293 472L294 473L293 472M87 510L87 511L91 511L91 512L87 513L87 514L91 512L92 512L96 514L96 513L92 512L92 511L96 511L87 510M140 510L140 511L145 511L140 510M166 511L166 516L174 516L174 517L167 518L167 520L175 520L175 511L174 511L171 515L171 514L173 511L166 511M221 510L221 517L214 518L214 520L222 520L221 517L222 516L229 516L229 512L221 510M236 510L235 515L231 511L230 511L230 517L231 517L240 516L236 510M242 510L242 517L235 517L235 518L242 521L243 521L242 510M289 510L289 519L289 520L293 519L292 516L297 515L294 520L299 521L298 510L297 510C295.81 513.771 293.828 514.569 290 515L289 510M340 514L340 515L337 515L337 516L347 516L347 515L344 515C348.247 508.24 335.94 510.156 340 514M415 510L415 511L421 511L415 510M57 511L54 515L54 516L57 520L58 520L55 516L55 515L57 511M69 511L64 516L64 517L74 517L74 516L69 511M76 511L76 512L79 512L75 519L75 520L81 516L81 521L82 521L82 511L81 511L81 515L80 515L80 511L76 511M84 511L84 521L85 521L84 511M100 511L97 520L101 517L102 520L103 520L100 511M104 511L102 514L102 515L104 521L105 521L104 511M106 511L106 521L117 520L117 519L113 519L113 517L117 517L117 516L116 511L108 511L109 516L107 516L106 511M128 511L128 512L131 512L127 519L127 520L134 517L134 521L135 521L135 511L134 511L133 513L128 511M136 511L136 521L137 521L136 511M147 511L145 516L146 512L139 512L139 517L148 517L147 511M151.618 512.042C148.684 514.3 152.73 517.998 155.382 515.958C158.316 513.7 154.27 510.002 151.618 512.042M158 511C157.79 517.443 155.183 518.927 149 519L149 520L158 521L159 521L158 511z"/>
<path style="fill:#ffffff; stroke:none;" d="M167 514L172 513C169.587 511.338 168.608 511.556 167 514z"/>
<path style="fill:#000000; stroke:none;" d="M185 511L185 512L189 512L189 513L184 515L184 516L194 516L194 515C191.869 513.945 190.404 513.247 193 512L185 511M196 511L196 512L204 512L204 513L196 513L196 517L200 517L200 519L195 519L195 520L205 520L205 519L201 519L201 517L205 517L205 516L197 516L197 514L205 514L205 511L196 511M213 511L213 516L219 516L219 511L218 511L218 515L214 515L214 514L217 514L217 513L213 511M251 511C251.885 516.302 255.364 515.74 260 516L260 511L252 515L251 511M267 511C267.025 517.955 268.371 519.338 275 521L275 511L274 511L274 519L268 519L267 511M278 511C278.025 517.955 279.371 519.338 286 521L286 511L285 511L285 519L279 519L279 516L283 516L283 515L279 515L279 512L284 512L278 511M300 511C300.025 517.955 301.371 519.338 308 521L308 511L307 511L307 519L301 519L301 512L306 512L300 511M311 511L311 512L316 512L311 519L311 520C315.589 518.349 316.74 515.731 317 511L311 511M319 511L319 521L320 521L319 511M327 511C327.025 517.955 328.371 519.338 335 521L335 511L334 511L334 519L328 519L328 512L333 512L327 511z"/>
<path style="fill:#ffffff; stroke:none;" d="M339 511C340.958 513.994 343.042 513.994 345 511L339 511z"/>
<path style="fill:#000000; stroke:none;" d="M349 511C349.885 516.302 353.365 515.74 358 516L358 511L350 515L349 511M365 511L365 512L364 520L367 516L371 519C369.621 516.107 368.223 514.114 371 512L365 511M373 511L373 521L374 521L373 511M376 512L376 513L379 514L376 515L376 516L379 514L380 514L382 517L376 517L376 518L379 521L380 521L384 517L384 521L385 521L385 511L384 511L384 516L380 514L383 513L376 512M387 515L396 515L396 514L388 514L388 513L396 513L396 511C391.85 511.015 388.456 510.613 387 515M402 511L402 512L407 512L402 515L402 516L408 511L402 511M410 511L410 516L411 516L413 514L413 513L410 511M425 511C425.025 517.955 426.371 519.338 433 521L433 511L432 511L432 519L426 519L426 512L431 512L425 511M438 511L438 520C441.807 516.785 441.807 514.215 438 511z"/>
<path style="fill:#ffffff; stroke:none;" d="M110 512L110 516L114 516L114 512L110 512M151 512L151 516L156 516L156 512L151 512z"/>
<path style="fill:#000000; stroke:none;" d="M414 512L414 513L417 513L417 514L413 517L418 519L419 519L423 517L419 514L419 513L422 513L414 512z"/>
<path style="fill:#ffffff; stroke:none;" d="M222 514L228 516L222 514z"/>
<path style="fill:#000000; stroke:none;" d="M75 516L78 515L75 516z"/>
<path style="fill:#ffffff; stroke:none;" d="M132 514L132 516L134 516L134 514L132 514M140 514L140 515L144 515L140 514z"/>
<path style="fill:#000000; stroke:none;" d="M223 514L224 515L223 514z"/>
<path style="fill:#ffffff; stroke:none;" d="M415 515L415 516L421 516L415 515z"/>
<path style="fill:#000000; stroke:none;" d="M86 515L86 516L91 516L91 517L87 517L87 518L95 518L95 519L87 519L87 521L96 521L96 517L92 517L92 516L96 516L86 515M386 516L386 517L394 518L394 519L387 519L387 521L396 521L396 520L394 519L396 516L386 516z"/>
<path style="fill:#ffffff; stroke:none;" d="M107 517L107 519L112 519L112 517L107 517z"/>
<path style="fill:#000000; stroke:none;" d="M184 517L184 518L189 521L190 521L190 518L194 518L184 517M251 520L259 521L259 520L252 520L252 519L260 519L260 517L251 520M338 517L338 521L346 521L346 517L338 517M349 520L357 521L357 520L350 520L350 519L358 519L358 517L349 520M403 517L403 521L411 521L411 517L403 517M140 518L140 519L147 521C148.458 517.131 142.572 518.002 140 518z"/>
<path style="fill:#ffffff; stroke:none;" d="M168 518L168 520L174 520L174 518L168 518M215 518L215 520L221 520L221 518L215 518z"/>
<path style="fill:#000000; stroke:none;" d="M223 518L223 519L230 521C231.458 517.131 225.572 518.002 223 518z"/>
<path style="fill:#ffffff; stroke:none;" d="M339 518L339 520L345 520L345 518L339 518M404 518L404 520L410 520L410 518L404 518z"/>
<path style="fill:#000000; stroke:none;" d="M414 518L422 521L422 520L414 518M64 519L64 520L74 520L64 519M119.333 519.667L119.667 520.333L119.333 519.667M177 519L178 520L177 519M436 519L437 520L436 519M74 556L71 558L71 559L74 562L75 562L74 556M224 556L220 562L220 561L222 561L222 560L217 560L217 558L222 558L222 557L216 557L219 561L219 562L216 562L216 563L224 564L225 564L224 556M268 562L269 562L269 556L268 556L268 559C265.644 557.756 256.798 557.774 261.622 560.863C263.39 561.995 266.033 561.072 268 562M309 556L309 557L312 557L308 561L308 562L318 562L318 561L313 557L316 560L317 560L317 556L309 556M325 556L325 560L334 560L334 559L326 559L326 557L334 557L325 556M374 556L374 557L379 557L374 556M381 556L381 562L382 562L384 560L384 559L381 556M395 559L396 559L399 557L397 564C399.498 560.466 398.642 553.495 395 559M56.5602 558.086C53.85 560.07 55.9042 567.46 59.3009 564.914C62.0403 562.86 60.1203 555.48 56.5602 558.086M63 557L63 567L64 567L63 557M68 557L65 561L65 562L72 561L72 560L68 557M140 567L141 567L141 563L143 563L143 567L144 567L144 557L143 557L141 559C138.612 554.606 134.258 558.833 135.111 562.972C135.748 566.06 138.517 565.176 140 567M146 557L146 558L151 558L146 565L146 566C150.589 564.349 151.74 561.731 152 557L146 557M154 557L154 567L155 567L154 557M162 557L161 560L161 561L171 562L171 557L170 557L170 561L167 560L168 557L162 557M178 558L178 559L183 559L178 558M184 557L184 567L185 567L185 562L186 562L186 567L187 567L187 557L186 557L186 561L185 561L184 557M191 557L188 566L191 562L192 562L195 566L191 557M197 557L194 560L194 561L197 561L197 567L198 567L197 557M205 557L205 558L207 559L204 562L211 561L211 560L208 559L211 558L205 557M212 557L212 562L213 562L215 560L215 559L212 557M233 557L233 558L235 561L232 562L232 563L239 562L239 561C236.964 559.526 235.904 558.4 239 558L233 557M241 557L238 559L238 560L241 563L234 563L234 564L241 567L242 567L241 557M245.56 558.086C242.85 560.07 244.904 567.46 248.301 564.914C251.04 562.86 249.12 555.48 245.56 558.086M252 557L252 567L253 567L252 557z"/>
<path style="fill:#ffffff; stroke:none;" d="M262 557L261 561L265 560L265 558L264 557L262 557z"/>
<path style="fill:#000000; stroke:none;" d="M271 557C272.456 561.387 275.85 560.985 280 561L280 560L271 557M282 557C282.016 561.655 281.775 565.128 287 566L287 565L283 565L283 558L287 558L282 557M288 557L286 561L286 562L288 567L289 567L288 557M290 557L290 567L291 567L290 557M344 562L344 567L345 567L345 557L344 557L344 561C334.355 552.759 334.452 570.164 344 562M347 557L350 565L346 565L346 566L355 567L356 567L356 562L357 562C364.589 575.593 362.807 546.54 357 561L356 561L356 557L355 557C354.875 560.878 354.498 563.072 351 565L353 557L352 557L352 562L348 562L351 560L351 559L347 557M365 557L365 567L366 567L365 557M385 557L385 558L385 566L386 566L388 558L390 558L388 566L389 566L391 557L385 557M393 557L393 567L394 567L393 557z"/>
<path style="fill:#ffffff; stroke:none;" d="M56 558L57 565L59 565C59.9792 561.326 59.7979 559.26 56 558M136 558L136 565L139 565L139 558L136 558M163 558L163 559L167 559L163 558M245 558L246 565L248 565C248.979 561.326 248.798 559.26 245 558M337 558L338 565L340 565C340.979 561.326 340.798 559.26 337 558M359.549 559.175C357.366 560.579 358.869 565.485 361.451 563.825C363.635 562.421 362.131 557.515 359.549 559.175z"/>
<path style="fill:#000000; stroke:none;" d="M373 558L373 561L376 562L374 567L382 567L382 566L375 566L375 565L382 565L382 563L377 563L377 562L380 561L380 558L373 558z"/>
<path style="fill:#ffffff; stroke:none;" d="M140 559L140 563L143 562L143 560L140 559z"/>
<path style="fill:#000000; stroke:none;" d="M179.564 561.171C177.573 562.471 179.241 566.261 181.436 564.829C183.427 563.529 181.759 559.739 179.564 561.171M293 560L294 561L293 560M297 560L298 561L297 560M301 560L302 561L301 560z"/>
<path style="fill:#ffffff; stroke:none;" d="M312 560L313 561L312 560M374 560L374 561L379 561L374 560M179 561L179 565L182 565L182 561L179 561z"/>
<path style="fill:#000000; stroke:none;" d="M324 561L324 562L334 562L324 561M67 563C68.5845 567.773 73.4155 567.773 75 563L67 563M270 562L270 563L280 563L270 562z"/>
<path style="fill:#ffffff; stroke:none;" d="M68 566L74 566C72.0419 563.006 69.9581 563.006 68 566z"/>
<path style="fill:#000000; stroke:none;" d="M163 563L162 566L171 567L171 566L164 566L164 565L171 565L171 563L163 563M205 567L213 567L213 566L206 566L206 565L213 565L213 563C209.065 563.047 206.343 562.954 205 567M260 563L260 566L267 565L268 565L270 567L268 563L267 563L266 566L265 563L260 563M309 563L309 564L316 566C317.458 562.131 311.572 563.002 309 563M325 563L325 564L333 564L333 565L325 565L325 567L334 567L334 563L325 563M217 564C217.854 567.987 221.489 567 225 567L225 566L217 564M271 564L280 567L280 566L271 564z"/>
<path style="fill:#ffffff; stroke:none;" d="M261 565L261 566L264 566L261 565z"/>
<path style="fill:#000000; stroke:none;" d="M397 565L398 566L397 565M76 580L76 581L80 581L80 582L76 583L76 584L80 582L81 582L85 584L85 583L81 582L81 581L85 581L76 580M139 581L139 582L147 582L139 581M149 580L149 588L150 588L149 580M177 580L174 582L174 583L177 586L178 586L177 580M237 580L230 581L230 582L234 582L230 585L230 586C233.551 585.499 235.561 584.105 237 588L238 588L237 580M300 580L297 582L297 583L300 586L301 586L300 580M325 580L325 588L326 588L325 580M342 580L339 582L339 583L342 583L342 588L343 588L342 580M370 585L368 585L368 581L364 581L364 589L362 589L363 581L361 590L368 591L368 586L370 586L370 591L371 591C371.039 586.682 371.032 583.318 375 581L373 588C377.42 581.747 371.229 577.924 370 585M59 581L54 586L54 587L64 587L64 586L59 581M66 581L66 582L69 582L65 589L65 590L71 586L71 591L72 591L72 581L71 581L71 585L70 585L70 581L66 581M74 581L74 591L75 591L75 586L80 586L80 587L76 587L76 588L84 588L84 589L76 589L76 591L85 591L85 587L81 587L81 586L85 586L85 585L75 585L74 581M136 581L136 591L137 591L136 581M157 581L157 582L162 582L157 585L157 586L163 581L157 581M165 581L165 586L166 586L168 584L168 583L165 581M171 581L168 585L168 586L175 585L175 584L171 581M182 581L179 590L183 587L184 590L185 590L182 581M186 581L184 584L184 585L186 591L187 591L186 581M188 581L188 591L189 591L188 581M191 581L190 586L190 587L195 587L195 589L190 589L190 590L200 590L200 589L196 589L196 587L208 588L208 589L201 589L201 591L210 591L210 590L208 589L210 586L198 586L199 581L191 581M201 585L210 585L210 584L202 584L202 583L210 583L210 581C205.85 581.015 202.456 580.613 201 585M218 581C218.898 586.379 223.102 586.379 224 581L218 581M225 581L225 585L228 584L225 581M239 582L239 583L246 583L239 582M247 581L247 591L248 591L250 586L250 585L247 581M250 581L250 582L257 582L257 588L258 588L258 581L250 581M261 581C262.456 585.387 265.85 584.985 270 585L270 584L261 581M272 581L272 591L273 591L272 581M281 581L281 582L286 582L281 585L281 586L287 581L281 581M289 581L289 586L290 586L292 584L292 583L289 581M294 581L291 585L291 586L298 585L298 584L294 581M305 581L302 590L306 587L307 590L308 590L305 581M309 581L307 584L307 585L309 591L310 591L309 581M311 581L311 591L312 591L311 581M314 581L313 586L313 587L318 587L318 589L313 589L313 590L323 590L323 589L319 589L319 587L323 587L323 586L322 581L314 581M334 581L334 586L341 586L341 585L335 585L334 581M358 586L358 591L359 591L359 581L358 581L358 585C348.355 576.76 348.452 594.164 358 586z"/>
<path style="fill:#ffffff; stroke:none;" d="M193 582L193 586L197 586L197 582L193 582M316 582L316 586L320 586L320 582L316 582M351 582L352 589L354 589C354.979 585.326 354.798 583.26 351 582M365 582L365 589L367 589L367 582L365 582z"/>
<path style="fill:#000000; stroke:none;" d="M139 583L138 586L138 587L148 587L148 586L147 583L139 583z"/>
<path style="fill:#ffffff; stroke:none;" d="M219 583L219 585L223 585L223 583L219 583M235.667 583.333L236.333 583.667L235.667 583.333z"/>
<path style="fill:#000000; stroke:none;" d="M65 586L68 585L65 586z"/>
<path style="fill:#ffffff; stroke:none;" d="M140 584L140 585L146 585L140 584z"/>
<path style="fill:#000000; stroke:none;" d="M241.342 585.171C238.486 586.63 240.82 590.57 243.591 589.339C246.558 588.021 244.126 583.748 241.342 585.171z"/>
<path style="fill:#ffffff; stroke:none;" d="M240 586L240 588L245 588L245 586L240 586z"/>
<path style="fill:#000000; stroke:none;" d="M253 585L253 589L249 589L249 590L259 590L259 589L254 589L253 585M170 587C171.585 591.773 176.415 591.773 178 587L170 587M260 586L260 587L270 587L260 586M293 587C294.585 591.773 299.415 591.773 301 587L293 587M158 587L158 591L166 591L166 587L158 587z"/>
<path style="fill:#ffffff; stroke:none;" d="M171 590L177 590C175.042 587.006 172.958 587.006 171 590z"/>
<path style="fill:#000000; stroke:none;" d="M218 590L226 591L226 590L219 590L219 589L227 589L227 587L218 590M230 587C231.343 591.046 234.065 590.953 238 591L238 590L230 587M282 587L282 591L290 591L290 587L282 587z"/>
<path style="fill:#ffffff; stroke:none;" d="M294 590L300 590C298.042 587.006 295.958 587.006 294 590z"/>
<path style="fill:#000000; stroke:none;" d="M335 587C336.343 591.046 339.065 590.953 343 591L343 590L335 587M139 588C141.268 591.495 144.732 591.495 147 588L139 588z"/>
<path style="fill:#ffffff; stroke:none;" d="M159 588L159 590L165 590L165 588L159 588z"/>
<path style="fill:#000000; stroke:none;" d="M261 588L270 591L270 590L261 588z"/>
<path style="fill:#ffffff; stroke:none;" d="M283 588L283 590L289 590L289 588L283 588z"/>
<path style="fill:#000000; stroke:none;" d="M54 589L54 590L64 590L54 589z"/>
<path style="fill:#ffffff; stroke:none;" d="M140 589L140 590L146 590L140 589z"/>
<path style="fill:#000000; stroke:none;" d="M149 589L150 590L149 589M325 589L326 590L325 589M373 589L374 590L373 589M56 627L56 628L60 628L56 627M63 627L55 629L55 630L55 632L55 633L61 633L59 630L63 634L56 635L56 637L64 637L63 627M76 627L76 628L81 628L76 627M83 627L83 635L84 635L83 627M119 627L114 630L114 631L119 629L120 629L124 631L124 630L119 627M161 627L158 629L158 630L161 633L162 633L161 627M284 627L280 629L280 630L284 633L285 633L284 627M322 627L320 630L320 631L322 635L323 635L322 627M70 628L65 631L65 632L75 632L75 633L65 633L65 634L70 636L71 636L76 633C76.802 637.805 79.5658 637.947 84 638L84 637L77 637L77 634L82 633L82 629L75 629L76 632L70 628M93 628L93 631L99 631L99 630L94 630L94 629L99 629L93 628M101 628L101 632L92 632L92 633L101 635L102 635L101 628M104 628L104 633L108 633L108 636L103 636L103 637L113 637L113 636L109 636L112 633L112 628L104 628M126.618 629.042C123.684 631.3 127.73 634.998 130.382 632.958C133.316 630.7 129.27 627.002 126.618 629.042M133 628C132.79 634.443 130.183 635.927 124 636L124 637L133 638L134 638L133 628M141 628L141 629L146 629L141 632L141 633L147 628L141 628M149 628L149 633L150 633L152 631L152 630L149 628M155 628L152 632L152 633L159 632L159 631L155 628M166 628L163 637L167 634L168 637L169 637L166 628M170 628L168 631L168 632L170 638L171 638L170 628M172 628L172 638L183 637L183 636L179 636L179 634L183 634L183 633L182 628L174 628L175 633L173 633L172 628M194 628C194.025 635.049 195.964 638.513 202 633L202 638L203 638L203 628L202 628L202 632L200 632L200 628L194 628M205 628L205 629L210 629L210 632L205 632C205.864 637.179 209.503 636.913 214 638L214 628L213 628L213 636L206 636L206 633C209.474 632.423 210.423 631.474 211 628L205 628M216 632L225 632L225 631L217 631L217 630L225 630L225 628C220.85 628.015 217.456 627.613 216 632M232 628L232 629L237 629L232 633L232 634L235 634L235 638L236 638L236 634L240 633L240 638L241 638L241 628L240 628L237 633L238 628L232 628M248 628L248 632L254 632L254 631L249 631L249 629L254 629L248 628M256 628L256 633L248 633L248 634L251 634L251 638L252 638L252 634L256 634L256 638L257 638L256 628M259 628L259 629L267 629L267 630L259 630L259 634L263 634L263 636L258 636L258 637L268 637L268 636L264 636L264 634L268 634L268 633L260 633L260 631L268 631L268 628L259 628M276 628C276.652 631.911 278.136 632.7 282 633L282 632L277 632L276 628M287 628L287 629L292 629L287 636L287 637C291.589 635.349 292.74 632.731 293 628L287 628M295 628L295 638L296 638L295 628M297 628C297.023 634.567 298.471 638.386 305 634L305 638L306 638L306 628L305 628L304 630L297 628M314 628C314.303 634.922 315.802 637.915 323 638L323 637L316 637L321 633L321 632L315 633L315 631L319 631L319 630L315 630L315 629L319 629L314 628z"/>
<path style="fill:#ffffff; stroke:none;" d="M105 629L105 632L111 632L111 629L105 629M126 629L126 633L131 633L131 629L126 629M176 629L176 633L180 633L180 629L176 629M195 629L195 636L199 636L199 629L195 629M298 629L298 636L302 636L302 629L298 629M76 632L76 633L81 633L81 631L76 632M303 631L303 633L305 633L305 631L303 631z"/>
<path style="fill:#000000; stroke:none;" d="M114 632L114 633L124 633L114 632M154 634C155.585 638.773 160.415 638.773 162 634L154 634M215 633L215 634L223 635L223 636L216 636L216 638L225 638L225 637L223 636L225 633L215 633M97 634L93 637L93 638L97 636L98 636L102 638L102 637L97 634M115 634L115 638L123 638L123 634L115 634M142 634L142 638L150 638L150 634L142 634z"/>
<path style="fill:#ffffff; stroke:none;" d="M155 637L161 637C159.042 634.006 156.958 634.006 155 637M173 634L173 636L178 636L178 634L173 634z"/>
<path style="fill:#000000; stroke:none;" d="M277 634L277 638L285 638L285 634L277 634z"/>
<path style="fill:#ffffff; stroke:none;" d="M57 635L57 637L63 637L63 635L57 635z"/>
<path style="fill:#000000; stroke:none;" d="M66 635C66.8544 638.987 70.4895 638 74 638L74 637L66 635z"/>
<path style="fill:#ffffff; stroke:none;" d="M143 635L143 637L149 637L149 635L143 635M278 635L278 637L284 637L284 635L278 635M116 636L116 637L122 637L116 636z"/>
<path style="fill:#000000; stroke:none;" d="M185 636L186 637L185 636M325 636L326 637L325 636M66 650L66 655L75 655L75 654L67 654L67 653L75 653L75 652L67 652L67 651L74 651L66 650M125 651L124 655L124 656L126 658L133 658L133 659L125 659L125 660L134 661L134 651L133 651L133 656L130 655L132 651L125 651M144 650L144 658L145 658L144 650M174 650L174 651L179 651L174 650M181 650L181 658L182 658L181 650M206 650L201 653L201 654L206 652L207 652L211 654L211 653L206 650M55 651L59 654L59 655L55 655L55 656L56 661L64 661L64 651L63 651L63 658L57 658L57 657L62 657L62 651L61 651L59 654L60 651L55 651M80 660L81 656L82 656L82 661L83 661L83 651L82 651L82 655C77.0538 647.798 73.4619 657.83 80 660M84 651L84 661L85 661L84 651M89 651L86 660L89 656L90 656L93 660L89 651M95 651L92 654L92 655L95 655L95 661L96 661L95 651M98 651L102 659L97 659L97 660L107 660L107 659L103 659L106 651L105 651L98 651M109 651C109.025 657.955 110.371 659.338 117 661L117 651L116 651L116 659L110 659L110 652L115 652L109 651M137 651L135 657L136 657L137 654L138 654C137.074 659.972 139.359 660.933 145 661L145 660L138 660L140 654L141 654L142 657L143 657L141 651L140 651L139 654L137 651M152 652L152 653L155 653L155 654L152 655C153.209 657.236 155.168 658.578 152 659L152 660L160 661L161 661L161 651L160 651C159.875 654.878 159.498 657.072 156 659L159 655L156 654L156 653L159 652L152 652M164 651L164 652L168 652L168 655L164 655C164.728 659.362 166.824 659.863 171 660L171 659L165 659L169 651L164 651M172 651L170 653L170 654L170 656L170 657L172 661L173 661L173 656L174 656C174.802 660.805 177.566 660.947 182 661L182 660L175 660L175 657L180 656L180 652L172 651M191 651L191 656L195 656L195 659L190 659L190 660L200 660L200 659L196 659L199 656L199 651L191 651M214.56 652.086C211.85 654.07 213.904 661.46 217.301 658.914C220.04 656.86 218.12 649.48 214.56 652.086M221 651L221 661L222 661L221 651M223 651C223.025 657.955 224.371 659.338 231 661L231 651L230 651L230 659L224 659L224 652L229 652L223 651z"/>
<path style="fill:#ffffff; stroke:none;" d="M56 652L56 653L59 653L56 652M77 652L77 659L80 652L77 652M192 652L192 655L198 655L198 652L192 652M214 652L215 659L217 659C217.979 655.326 217.798 653.26 214 652M126 653L126 654L130 654L126 653M173 653L179 656L179 654L173 653M99 654L99 656L105 656L105 654L99 654M153 656L158 656L153 656M59.6667 655.333L60.3333 655.667L59.6667 655.333z"/>
<path style="fill:#000000; stroke:none;" d="M201 655L201 656L211 656L201 655M65 656L65 657L70 659L71 659L75 657L65 656z"/>
<path style="fill:#ffffff; stroke:none;" d="M128.667 656.333L129.333 656.667L128.667 656.333z"/>
<path style="fill:#000000; stroke:none;" d="M202 657L202 661L210 661L210 657L202 657M66 658L75 661L75 660L66 658z"/>
<path style="fill:#ffffff; stroke:none;" d="M57 659L57 660L63 660L57 659M203 659L203 660L209 660L203 659z"/>
<path style="fill:#000000; stroke:none;" d="M234 659L235 660L234 659M74 697L71 699L71 700L74 703L75 703L74 697M136 697L136 698L140 698L136 697M143 697L143 705L144 705L143 697M206 697L204 702L205 698L201 702L202 698L200 703L206 705L207 705L207 701L209 701L209 705L210 705L210 697L209 697L208 700L206 697M241 697L241 698L246 698L241 697M248 697L248 705L249 705L248 697M270 701L270 702L267 698L266 698L266 708L267 708L267 703L277 703L277 702L274 702C278.247 695.24 265.94 697.156 270 701M287 697L287 705L288 705L287 697M296 706L296 707L300 706L299 703C303.068 700.037 299.385 695.557 297.077 698.583C295.494 700.659 297.499 703.593 296 706M304 697L301 707L305 707L304 697M309.314 697.786C305.047 699.638 308.866 704.873 312.686 703.214C316.953 701.362 313.134 696.127 309.314 697.786M325 697L317 698C317.303 704.922 318.802 707.915 326 708L326 707L319 707C320.528 704.453 322.641 702.438 325 705L326 705L325 697M54 698L54 699L59 699L54 702L54 703L60 698L54 698M62 698L62 703L63 703L65 701L65 700L62 698M68 698L65 702L65 703L72 702L72 701L68 698M146 698L146 699L153 699L153 703L145 703L145 704L150 704L150 708L151 708L151 704L163 705L163 706L156 706L156 708L165 708L165 707L163 706L165 703L154 703L154 698L146 698M156 702L165 702L165 701L157 701L157 700L165 700L165 698C160.85 698.015 157.456 697.613 156 702M175 698L172 707L175 703L176 703L179 707L175 698M180 698L180 708L181 708L180 698M185 698L185 699L190 699L190 701L183 701L183 702L193 703L193 698L192 698L192 701L191 701L191 698L185 698M223 698L218 701L218 702L228 702L228 701L223 698M234 698L230 703L239 703L239 702L234 698M258 698C258.035 707.908 263.965 707.908 264 698L258 698z"/>
<path style="fill:#ffffff; stroke:none;" d="M269 698C270.958 700.994 273.042 700.994 275 698L269 698z"/>
<path style="fill:#000000; stroke:none;" d="M279 698L280 708L288 708L288 707L281 707L285 698L279 698z"/>
<path style="fill:#ffffff; stroke:none;" d="M297 698L298 702L300 702L301 698L297 698M309.643 699.067C307.453 700.69 310.404 703.38 312.357 701.933C314.547 700.31 311.596 697.62 309.643 699.067z"/>
<path style="fill:#000000; stroke:none;" d="M334 698L333 706L333 707L341 708L341 703L342 703L342 708L343 708L343 698L342 698L342 702L341 702L341 698L340 698L337 706L339 703L339 702L335 702L335 699L339 699L334 698M135 699L135 700L138 700L135 703C136.912 707.506 139.324 707.945 144 708L144 707L137 707L138 702L142 704L142 703C140.194 701.449 139.837 701.137 142 700L135 699M240 699C240.883 705.54 242.116 707.918 249 708L249 707L242 707L242 704L247 703L247 699L240 699z"/>
<path style="fill:#ffffff; stroke:none;" d="M259 699L259 706L263 706L263 699L259 699M280 699L280 703L284 703L284 699L280 699M318 699L318 703L322 703L322 699L318 699M323.667 700.333L324.333 700.667L323.667 700.333M241 702L241 703L246 703L246 701L241 702z"/>
<path style="fill:#000000; stroke:none;" d="M67 704C68.5845 708.773 73.4155 708.773 75 704L67 704M218 703L218 704L223 706L224 706L228 704L218 703M55 704L55 708L63 708L63 704L55 704z"/>
<path style="fill:#ffffff; stroke:none;" d="M68 707L74 707C72.0419 704.006 69.9581 704.006 68 707z"/>
<path style="fill:#000000; stroke:none;" d="M185 704L185 705L192 705L192 706L185 706L185 708L193 708L193 704L185 704M201 704C202.456 708.387 205.85 707.985 210 708L210 707L201 704M229 704L229 705L234 708L235 708L235 705L239 705L229 704M268 704L268 708L276 708L276 704L268 704z"/>
<path style="fill:#ffffff; stroke:none;" d="M56 705L56 707L62 707L62 705L56 705z"/>
<path style="fill:#000000; stroke:none;" d="M219 705C219.854 708.987 223.489 708 227 708L227 707L219 705z"/>
<path style="fill:#ffffff; stroke:none;" d="M269 705L269 707L275 707L275 705L269 705z"/>
<path style="fill:#000000; stroke:none;" d="M211.333 706.667L211.667 707.333L211.333 706.667M306 706L306 707L316 707L306 706M345 706L346 707L345 706M138 721L138 722L145 722L138 721M146 720L144 726C143.561 722.509 140.964 723.079 138 724L138 725L141 726L141 727L138 727L139 731L147 731L147 730L140 730L141 727L147 728C148.303 723.708 150.735 723.139 155 723L155 722L146 720M180 724L180 725L176 725L176 726L186 726L186 725L182 725L182 724L185 724C183.524 716.234 173.914 722.689 180 724M190.314 720.786C186.047 722.638 189.866 727.873 193.686 726.214C197.953 724.362 194.134 719.127 190.314 720.786M230 720L230 721L235 721L230 720M257 721C259.932 729.834 269.373 718.19 257 721M281 720L280 723L274 721L274 722L278 722L274 725L274 726L281 724L281 728L282 728L281 720M360 720L358 724L360 722L361 722L367 724L365 721L362 723L360 720M393 726L394 726L394 720L393 720L393 723C390.644 721.756 381.798 721.774 386.622 724.863C388.39 725.995 391.033 725.072 393 726M136 721L136 731L137 731L136 721M156 721L156 731L157 731L159 726L159 725L156 721M160 721L160 722L163 722L159 729L159 730L166 726L166 731L167 731L167 721L166 721L166 725L164 725L164 721L160 721M168 721L168 731L169 731L168 721z"/>
<path style="fill:#ffffff; stroke:none;" d="M178 721C179.977 723.717 182.023 723.717 184 721L178 721M190.643 722.067C188.453 723.69 191.404 726.38 193.357 724.933C195.547 723.31 192.596 720.62 190.643 722.067z"/>
<path style="fill:#000000; stroke:none;" d="M198 721C198.023 727.567 199.471 731.386 206 727L206 731L207 731L207 721L206 721L205 723L198 721M209 721L209 731L210 731L209 721M219 721L219 722L222 722L218 729L218 730L225 727L225 731L226 731L226 721L225 721L224 723L219 721M227 721L227 731L228 731L227 721M237 721L235 726L236 722L229 722L229 727L238 727L237 721M246 721L246 722L250 722L245 725L245 726L251 721L246 721M253 721L253 726L254 726L253 721z"/>
<path style="fill:#ffffff; stroke:none;" d="M258 724L264 724L264 721L258 724z"/>
<path style="fill:#000000; stroke:none;" d="M293.728 722.047C290.495 724.592 293.822 731.576 297.397 728.338C300.239 725.764 297.405 719.153 293.728 722.047M300 721L300 731L301 731L300 721M303 721L303 726L311 726L311 721L303 721M319 721L318 726L321 724L326 726L326 721L323 721L323 722L323 725L319 721M327 721L327 726L328 726L330 724L330 723L327 721M335 730L336 726L337 726L337 731L338 731L338 721L337 721L337 725C332.054 717.798 328.462 727.83 335 730M339 721L339 731L350 730L350 729L346 729L346 726L350 726L350 725L342 725L342 722L350 722L350 721L341 721L341 726L345 726L345 729L340 729L339 721M369 721L369 726L373 726L373 729L368 729L368 730L378 730L378 729L374 729L377 726L377 721L369 721z"/>
<path style="fill:#ffffff; stroke:none;" d="M387 721L386 725L390 724L390 722L389 721L387 721z"/>
<path style="fill:#000000; stroke:none;" d="M404 726L404 731L405 731L405 721L404 721L404 725C394.355 716.759 394.452 734.164 404 726z"/>
<path style="fill:#ffffff; stroke:none;" d="M199 722L199 729L203 729L203 722L199 722M294.549 723.175C292.365 724.579 293.869 729.485 296.451 727.825C298.635 726.421 297.131 721.515 294.549 723.175M304 722L304 725L310 725L310 722L304 722M332 722L332 729L335 722L332 722M370 722L370 725L376 725L376 722L370 722M397 722L398 729L400 729C400.979 725.326 400.798 723.26 397 722M139 724L139 725L144 725L139 724z"/>
<path style="fill:#000000; stroke:none;" d="M150.342 725.171C147.486 726.63 149.82 730.57 152.591 729.339C155.558 728.021 153.126 723.748 150.342 725.171z"/>
<path style="fill:#ffffff; stroke:none;" d="M204 724L204 726L206 726L206 724L204 724M223 724L223 726L225 726L225 724L223 724M230 724L230 725L234 725L230 724M149 726L149 728L154 728L154 726L149 726z"/>
<path style="fill:#000000; stroke:none;" d="M357 725L357 726L367 726L357 725z"/>
<path style="fill:#ffffff; stroke:none;" d="M142.667 726.333L143.333 726.667L142.667 726.333z"/>
<path style="fill:#000000; stroke:none;" d="M256 726L256 727L266 727L256 726M246 727L246 731L254 731L254 730L247 730L247 729L254 729L254 727L246 727M274 727C275.343 731.046 278.065 730.953 282 731L282 730L274 727M302 727L302 728L307 731L308 731L308 728L312 728L302 727M320 727L320 728L327 731L328 731L328 727L320 727M358 727L358 728L366 728L366 729L358 729L358 731L367 731L367 727L358 727M385 727L385 730L392 729L393 729L395 731L393 727L392 727L391 730L390 727L385 727M176 730L176 731L186 731L176 730M230 728L230 729L237 731C238.458 727.131 232.572 728.002 230 728M257 728L265 731L265 730L257 728M187 729L187 730L197 730L187 729M284.333 729.667L284.667 730.333L284.333 729.667z"/>
<path style="fill:#ffffff; stroke:none;" d="M386 729L386 730L389 730L386 729z"/>
<path style="fill:#000000; stroke:none;" d="M407 729L408 730L407 729M296 782L296 783L298 788L299 788L299 781L296 782z"/>
</svg>
